<?xml version="1.0" standalone="no"?>
<!DOCTYPE svg PUBLIC "-//W3C//DTD SVG 20010904//EN"
 "http://www.w3.org/TR/2001/REC-SVG-20010904/DTD/svg10.dtd">
<svg version="1.0" xmlns="http://www.w3.org/2000/svg"
 width="1024.000000pt" height="1024.000000pt" viewBox="0 0 1024.000000 1024.000000"
 preserveAspectRatio="xMidYMid meet">

<g transform="translate(0.000000,1024.000000) scale(0.100000,-0.100000)"
fill="#000000" stroke="none">
<path d="M0 9610 c0 -364 4 -630 9 -630 5 0 11 17 14 38 6 53 27 154 37 177 4
11 18 49 30 85 20 58 82 193 113 245 53 90 83 135 90 135 4 0 7 7 7 15 0 8 11
22 25 31 14 9 25 21 25 26 0 14 142 158 156 158 7 0 21 11 32 25 11 14 23 25
26 25 4 0 39 22 79 48 40 27 87 55 105 63 17 8 32 17 32 21 0 5 9 8 20 8 11 0
20 5 20 10 0 6 6 10 14 10 8 0 31 9 53 19 41 21 72 33 88 36 6 0 19 5 30 9 56
22 48 20 123 32 23 4 42 11 42 15 0 5 20 9 45 9 25 0 45 5 45 10 0 7 -217 10
-630 10 l-630 0 0 -630z"/>
<path d="M8980 10230 c0 -5 18 -10 39 -10 22 0 43 -4 46 -10 3 -5 21 -10 40
-10 19 0 36 -4 39 -9 4 -5 29 -12 56 -16 28 -4 50 -11 50 -16 0 -5 11 -9 24
-9 14 0 28 -4 31 -10 3 -5 14 -10 23 -10 18 0 173 -76 182 -89 3 -4 26 -18 51
-31 26 -12 59 -33 73 -46 14 -14 28 -24 31 -24 17 -1 35 -14 40 -31 4 -10 12
-19 18 -19 18 0 167 -147 167 -165 0 -8 5 -15 11 -15 15 0 47 -39 66 -80 4 -8
9 -17 12 -20 10 -8 42 -64 48 -82 3 -10 9 -18 14 -18 5 0 9 -9 9 -20 0 -11 3
-20 8 -20 8 0 32 -49 32 -67 0 -7 5 -13 10 -13 6 0 10 -7 10 -15 0 -8 4 -23 9
-33 23 -43 41 -92 41 -111 0 -12 5 -21 10 -21 6 0 10 -15 10 -34 0 -19 4 -37
9 -40 4 -3 14 -39 20 -81 7 -41 17 -75 22 -75 5 0 9 250 9 630 l0 630 -630 0
c-413 0 -630 -3 -630 -10z"/>
<path d="M5170 4300 c0 -5 5 -10 11 -10 5 0 7 5 4 10 -3 6 -8 10 -11 10 -2 0
-4 -4 -4 -10z"/>
<path d="M4877 4221 c-4 -17 -3 -21 5 -13 5 5 8 16 6 23 -3 8 -7 3 -11 -10z"/>
<path d="M3570 4179 c0 -5 5 -7 10 -4 6 3 10 8 10 11 0 2 -4 4 -10 4 -5 0 -10
-5 -10 -11z"/>
<path d="M4861 4174 c0 -11 3 -14 6 -6 3 7 2 16 -1 19 -3 4 -6 -2 -5 -13z"/>
<path d="M4393 4113 c9 -2 23 -2 30 0 6 3 -1 5 -18 5 -16 0 -22 -2 -12 -5z"/>
<path d="M7630 4010 c0 -5 5 -10 11 -10 5 0 7 5 4 10 -3 6 -8 10 -11 10 -2 0
-4 -4 -4 -10z"/>
<path d="M3252 3940 c0 -14 2 -19 5 -12 2 6 2 18 0 25 -3 6 -5 1 -5 -13z"/>
<path d="M5096 3575 c4 -8 11 -15 16 -15 6 0 5 6 -2 15 -7 8 -14 15 -16 15 -2
0 -1 -7 2 -15z"/>
<path d="M4630 3563 c0 -15 28 -43 43 -43 6 0 5 5 -3 13 -8 6 -21 18 -27 26
-8 9 -13 10 -13 4z"/>
<path d="M6056 3555 c4 -8 11 -15 16 -15 6 0 5 6 -2 15 -7 8 -14 15 -16 15 -2
0 -1 -7 2 -15z"/>
<path d="M4139 3533 c-13 -16 -12 -17 4 -4 9 7 17 15 17 17 0 8 -8 3 -21 -13z"/>
<path d="M4311 3514 c0 -11 3 -14 6 -6 3 7 2 16 -1 19 -3 4 -6 -2 -5 -13z"/>
<path d="M6698 3513 c6 -2 18 -2 25 0 6 3 1 5 -13 5 -14 0 -19 -2 -12 -5z"/>
<path d="M6205 3450 c-16 -17 -16 -20 -3 -15 9 4 19 13 22 21 7 19 2 18 -19
-6z"/>
<path d="M0 631 l0 -631 635 0 c417 0 635 3 635 10 0 6 -20 10 -44 10 -25 0
-48 4 -51 10 -3 5 -22 10 -41 10 -19 0 -34 5 -34 10 0 6 -13 10 -29 10 -17 0
-32 4 -35 9 -3 4 -24 11 -46 15 -41 6 -48 9 -107 40 -17 9 -38 16 -47 16 -9 0
-16 5 -16 10 0 6 -9 10 -20 10 -11 0 -20 3 -20 8 0 4 -23 18 -51 32 -28 13
-55 30 -61 37 -6 7 -17 13 -24 13 -8 0 -14 5 -14 10 0 6 -6 10 -14 10 -8 0
-16 7 -20 15 -3 8 -14 15 -25 15 -10 0 -26 11 -35 25 -9 14 -27 27 -41 31 -14
3 -25 12 -25 19 0 7 -29 40 -65 74 -36 33 -65 65 -65 71 0 6 -7 13 -15 16 -8
3 -17 14 -20 23 -3 10 -14 27 -24 38 -10 11 -26 33 -35 49 -9 16 -30 52 -47
79 -16 28 -34 61 -40 75 -12 30 -35 80 -61 137 -10 23 -22 57 -25 77 -3 20 -9
36 -13 36 -5 0 -23 101 -33 189 -1 8 -8 16 -14 19 -10 3 -13 -127 -13 -627z"/>
<path d="M10217 1253 c-3 -5 -8 -41 -12 -80 -4 -40 -11 -73 -16 -73 -5 0 -9
-13 -9 -28 0 -16 -3 -32 -6 -35 -10 -10 -43 -109 -44 -129 0 -10 -4 -18 -10
-18 -5 0 -10 -6 -10 -14 0 -14 -39 -96 -51 -106 -3 -3 -13 -23 -24 -45 -20
-44 -56 -98 -67 -103 -5 -2 -8 -8 -8 -14 0 -29 -213 -258 -240 -258 -6 0 -10
-6 -10 -14 0 -7 -16 -21 -35 -30 -19 -9 -40 -22 -47 -29 -24 -22 -72 -52 -123
-77 -27 -14 -52 -27 -55 -30 -5 -6 -47 -25 -110 -52 -14 -6 -32 -14 -41 -18
-9 -5 -33 -12 -53 -15 -20 -4 -39 -11 -42 -16 -3 -5 -18 -9 -34 -9 -16 0 -32
-5 -35 -10 -3 -6 -19 -10 -35 -10 -16 0 -32 -4 -35 -10 -3 -5 -24 -10 -46 -10
-21 0 -39 -4 -39 -10 0 -7 217 -10 630 -10 l630 0 0 630 c0 573 -3 656 -23
623z"/>
</g>
</svg>
